<?xml version="1.0" standalone="no"?>
<!DOCTYPE svg PUBLIC "-//W3C//DTD SVG 20010904//EN"
 "http://www.w3.org/TR/2001/REC-SVG-20010904/DTD/svg10.dtd">
<svg version="1.0" xmlns="http://www.w3.org/2000/svg"
 width="653.000000pt" height="653.000000pt" viewBox="0 0 653.000000 653.000000"
 preserveAspectRatio="xMidYMid meet">
<metadata>
Created by potrace 1.14, written by Peter Selinger 2001-2017
</metadata>
<g transform="translate(0.000000,653.000000) scale(0.100000,-0.100000)"
fill="#000000" stroke="none">
<path d="M0 5094 l0 -1437 195 -194 195 -195 -195 -195 -195 -196 0 -1433 0
-1434 3264 0 3264 0 0 1435 0 1436 -195 195 -195 194 195 195 195 194 1 1436
1 1435 -3265 0 -3265 0 0 -1436z m6208 -89 l2 -1210 -264 -264 -264 -264 264
-263 264 -263 0 -1209 0 -1209 -2947 1 -2948 1 0 1207 0 1208 258 257 c141
142 260 262 264 266 4 4 -112 128 -258 275 l-265 267 2 1200 c1 660 2 1202 3
1205 0 3 1325 5 2944 5 l2942 0 3 -1210z"/>
<path d="M1288 5587 l-178 -180 0 -426 1 -426 172 -177 173 -178 290 0 290 0
128 130 c70 72 126 134 124 140 -2 5 -45 52 -97 104 -72 73 -96 92 -105 83 -6
-7 -45 -50 -88 -97 l-76 -85 -175 0 c-165 0 -177 1 -194 21 -10 12 -49 56 -88
98 l-70 77 -1 310 c0 269 2 313 16 329 8 10 49 54 90 99 l74 81 172 0 172 0
91 -97 91 -98 95 95 c52 52 94 100 92 107 -1 7 -58 69 -127 139 l-125 127
-285 2 -285 2 -177 -180z"/>
<path d="M2674 5761 c-2 -2 -4 -355 -4 -783 l0 -778 125 0 c123 0 125 0 126
23 0 12 1 151 1 310 1 201 4 287 12 288 14 1 405 1 429 0 9 -1 17 -6 17 -13 0
-6 50 -145 112 -310 l112 -298 128 0 128 0 0 25 c0 22 -14 67 -40 130 -5 11
-45 119 -91 240 -45 121 -90 240 -99 265 l-18 46 35 39 c19 22 72 80 117 129
44 48 84 93 88 99 3 6 6 60 6 121 -1 127 15 99 -148 276 -48 52 -107 118 -131
145 l-44 50 -428 0 c-236 0 -431 -2 -433 -4z m792 -318 c86 -103 99 -119 112
-131 6 -7 12 -16 12 -19 0 -3 -36 -47 -81 -99 -76 -89 -83 -94 -120 -94 -21 0
-113 -1 -204 -1 -91 0 -187 1 -214 1 l-48 0 0 195 0 195 251 0 252 0 40 -47z"/>
<path d="M4241 5760 c-4 -3 -7 -275 -7 -605 l0 -600 30 -31 c17 -17 94 -97
170 -178 l139 -146 254 0 255 0 91 97 c51 53 127 133 169 177 l78 81 0 605 0
605 -130 0 -130 0 0 -546 0 -545 -92 -91 -93 -90 -147 -1 -146 0 -94 91 -93
92 -1 215 c-4 679 -7 870 -13 871 -23 4 -233 4 -240 -1z"/>
<path d="M1894 4051 c-2 -2 -4 -355 -4 -783 l0 -778 48 0 c26 -1 220 -1 432
-1 l385 0 35 39 c19 21 69 76 110 122 41 46 89 98 105 116 78 81 70 27 70 503
l1 426 -27 30 c-15 17 -36 39 -46 51 -16 19 -110 123 -215 238 l-36 40 -427 1
c-235 0 -429 -2 -431 -4z m768 -293 c9 -13 30 -39 48 -58 18 -19 48 -53 66
-76 l34 -41 0 -313 0 -313 -77 -91 c-42 -50 -79 -93 -81 -96 -2 -3 -118 -5
-258 -6 l-254 0 0 508 0 508 254 0 c252 0 254 0 268 -22z"/>
<path d="M3946 4042 c-2 -4 -29 -86 -59 -182 -30 -96 -90 -283 -132 -415 -43
-132 -78 -244 -80 -250 -1 -5 -5 -17 -8 -25 -3 -8 -34 -103 -67 -210 -106
-334 -128 -404 -139 -433 -14 -37 -8 -38 120 -35 l104 3 23 75 c13 41 25 81
27 88 4 10 71 12 312 10 l307 -3 26 -80 c14 -44 28 -84 32 -90 6 -10 214 -13
223 -3 3 2 -11 51 -29 109 -19 57 -60 185 -91 284 -31 99 -88 279 -127 400
-38 121 -106 333 -149 470 -44 138 -84 260 -89 272 -8 20 -16 21 -104 21 -53
0 -98 -3 -100 -6z m183 -679 c140 -432 130 -397 111 -405 -25 -9 -373 -9 -389
1 -11 7 3 60 72 277 110 343 120 374 123 374 2 0 39 -111 83 -247z"/>
<path d="M1112 2203 l3 -137 404 -3 c222 -2 405 -4 407 -6 1 -1 -635 -784
-788 -968 -28 -32 -28 -35 -28 -170 0 -122 2 -137 18 -141 14 -3 1146 -3 1162
1 8 2 6 258 -1 266 -4 3 -187 7 -407 8 l-400 2 31 40 c18 22 81 101 140 175
60 74 122 151 137 170 34 43 176 219 193 240 7 8 80 98 162 200 l150 184 0
138 1 138 -593 0 -594 0 3 -137z"/>
<path d="M2955 2278 c-32 -35 -109 -115 -172 -180 l-113 -116 0 -424 0 -423
76 -80 c41 -44 119 -125 172 -179 l97 -99 250 -1 249 -1 102 105 c56 58 133
138 172 179 l70 74 1 425 0 425 -103 106 c-57 58 -134 139 -171 179 l-68 72
-252 0 -251 0 -59 -62z m504 -278 c32 -36 72 -80 89 -99 l29 -34 -1 -312 -1
-312 -68 -75 c-37 -42 -76 -85 -86 -97 -17 -19 -29 -21 -160 -21 -77 0 -141 3
-141 8 0 4 -38 47 -84 96 l-83 90 0 311 -1 312 27 30 c14 16 54 61 88 99 l62
70 135 -1 135 -1 60 -64z"/>
<path d="M4239 2338 c-1 -2 -3 -353 -4 -780 -1 -542 2 -778 9 -779 47 -4 249
-3 252 2 2 3 4 229 5 502 0 274 2 497 4 497 2 0 299 -470 436 -690 5 -8 51
-82 102 -164 l93 -150 139 0 140 -1 3 783 2 782 -125 0 -125 0 -1 -437 c-1
-619 -2 -674 -9 -666 -4 5 -62 96 -130 203 -68 107 -164 259 -214 337 -50 78
-95 150 -101 160 -5 10 -26 43 -46 73 -55 85 -122 188 -168 263 l-43 67 -109
0 c-60 0 -110 -1 -110 -2z"/>
</g>
</svg>
